# xmcd CD database file
#
# Track frame offsets:
#	150
#	19007
#	40398
#	59246
#
# Disc length: 1068 seconds
#
# Revision: 2
# Processed by: cddbd v1.5.2PL0 Copyright (c) Steve Scherf et al.
# Submitted via: CDex 1.51
#
DISCID=34042a04
DTITLE=BRADIO - HOTELエイリアン
DYEAR=2015
DGENRE=JPop
TTITLE0=HOTELエイリアン
TTITLE1=Super Wonderful
TTITLE2=HOTELエイリアン -Hidden AFRO Ver.-
TTITLE3=Super Wonderful -Hidden AFRO Ver.-
EXTD=YEAR: 2015
EXTT0=
EXTT1=
EXTT2=
EXTT3=
PLAYORDER=
